<?xml version="1.0" encoding="UTF-8" standalone="no"?>
<svg
   version="1.1"
   width="400"
   height="400"
   id="svg10"
   viewBox="0 0 400 400"
   xml:space="preserve"
   xmlns="http://www.w3.org/2000/svg"
   xmlns:svg="http://www.w3.org/2000/svg"><defs
     id="defs10" /><path
     d="m 240.4831,279.99999 c 0,-8.01816 6.86886,-14.51689 15.34276,-14.51689 8.46958,0 13.41844,7.25845 19.17412,14.51689 5.75138,7.25844 10.70023,14.51689 19.17412,14.51689 8.4739,0 15.34276,-6.49873 15.34276,-14.51689"
     id="path2"
     style="fill:none;stroke:#ffffff;stroke-width:10.9662;stroke-linecap:round;stroke-linejoin:round;stroke-dasharray:none;stroke-opacity:1" /><path
     id="path6"
     d="m 126.10896,224.99982 c -0.5762,0.005 -1.15295,0.0102 -1.72918,0.0117 -0.38468,6e-4 -0.76896,0.001 -1.15364,0.003 l -0.55338,0.003 c -7.04146,0.0275 -14.61939,2.03329 -20.7578,5.48953 -0.27447,0.15998 -0.54997,0.31943 -0.82682,0.47525 -2.928074,1.64237 -5.772054,3.49112 -8.320304,5.68224 l -0.27085,0.23437 c -2.06633,1.764 -3.99322,3.71169 -5.71094,5.81766 l -0.21224,0.26302 c -3.17251,3.90568 -5.76986,8.11247 -7.76821,12.74206 -4.898664,11.75957 -5.117344,25.46414 -0.36979,37.30824 0.0642,0.1583 0.12647,0.31249 0.1888,0.46614 1.79938,4.44091 4.13854,8.59417 7.14712,12.33321 0.16391,0.20193 0.32769,0.40426 0.49089,0.60676 2.89469,3.78591 6.70094,7.10029 10.62761,9.78637 l 0.28255,0.1927 c 5.824864,4.03413 12.651394,6.64792 19.614574,7.86711 0.16663,0.0284 0.32915,0.0571 0.49089,0.0846 4.85528,0.84491 10.1717,0.82215 15.03775,0.0638 l 0.39192,-0.0638 c 0.67514,-0.10616 1.34394,-0.22962 2.00914,-0.38801 l 0.32813,-0.0807 c 0.95473,-0.22925 1.90827,-0.46298 2.85933,-0.70702 0.29387,-0.076 0.58767,-0.15201 0.88153,-0.22786 6.17974,-1.54547 12.00854,-4.82073 17.0026,-8.72127 0.203,-0.15938 0.40607,-0.31894 0.6094,-0.47786 4.91093,-3.70666 9.14499,-8.95886 12.12759,-14.32018 l 0.1862,-0.33593 c 0.7654,-1.36606 1.48334,-2.74357 2.095,-4.18616 4.94112,-11.99943 5.88386,-25.91073 0.83467,-38.08166 -0.0427,-0.10079 -0.0837,-0.19774 -0.125,-0.29557 -1.93527,-4.58406 -4.3312,-9.05179 -7.51953,-12.89311 -0.14333,-0.17136 -0.28733,-0.34346 -0.42967,-0.51562 -1.35686,-1.74031 -2.88346,-3.33371 -4.54686,-4.78511 -0.3438,-0.297 -0.68154,-0.59558 -1.01567,-0.90363 -6.7056,-6.255 -15.64606,-10.38775 -24.65493,-11.87619 l -0.33073,-0.0534 c -2.3103,-0.38478 -4.56841,-0.52745 -6.91015,-0.51692 z m 14.18622,30.89033 c 1.25673,-0.0221 2.537,0.34045 3.6836,1.00389 1.52513,1.05898 2.56293,2.4816 2.91273,4.32679 0.18867,1.98901 -0.38287,3.73225 -1.6354,5.27469 -0.94513,1.03571 -2.239,1.82767 -3.65626,1.91535 -0.35667,0.0134 -0.7134,0.0185 -1.07034,0.0208 -0.1198,0.003 -0.23846,0.006 -0.36193,0.009 -1.60987,0.0109 -2.87973,-0.68997 -4.05733,-1.7578 -1.4102,-1.46375 -1.80207,-2.97449 -1.7682,-4.95958 0.0882,-2.04244 0.93966,-3.15062 2.40886,-4.52861 1.0536,-0.87574 2.28747,-1.28253 3.54427,-1.30467 z m -31.07293,0.0169 c 1.29566,-0.0529 2.62737,0.32211 3.87369,1.18748 1.36498,1.08946 2.29289,2.38137 2.6237,4.12626 0.16814,1.77246 -0.23724,3.37054 -1.28646,4.81896 -1.11705,1.33695 -2.38334,2.27848 -4.14973,2.43879 -2.03523,0.10988 -3.4413,-0.21331 -5.07161,-1.46743 -1.05836,-0.9614 -1.89015,-2.30766 -1.98047,-3.75387 -0.0768,-2.03078 0.004,-3.59 1.42187,-5.15491 1.29554,-1.35195 2.90317,-2.12729 4.56901,-2.19528 z m -9.325524,29.08435 c 0.462864,-0.0253 0.934134,0.0522 1.372404,0.22005 1.14165,0.66895 1.78993,1.66806 2.47787,2.7682 3.1584,5.03284 8.47729,8.84739 14.15494,10.50381 l 0.39061,0.11588 c 2.07614,0.58398 4.09833,0.73469 6.24218,0.73176 h 0.35677 c 6.79457,-0.0213 13.01368,-2.41057 17.88935,-7.1718 l 0.3698,-0.38021 0.26953,-0.25781 c 0.7886,-0.76273 1.44806,-1.57078 2.0872,-2.46091 l 0.27473,-0.375 c 0.52587,-0.72317 1.0282,-1.45702 1.50913,-2.21091 0.46534,-0.64231 1.02794,-1.14854 1.78127,-1.39973 1.0796,-0.11891 2.06373,-0.0247 2.9622,0.6237 0.6834,0.79559 1.1856,1.64535 1.1602,2.72392 -0.48467,2.73594 -3.05733,5.32134 -4.90107,7.25514 -0.18633,0.21654 -0.37233,0.4335 -0.556,0.65234 -4.13333,4.72689 -10.53679,7.58372 -16.55987,8.85799 l -0.43489,0.0924 c -4.43023,0.86618 -9.75688,0.86326 -14.08854,-0.40364 -0.23564,-0.0612 -0.47103,-0.12252 -0.70703,-0.18228 -6.91324,-1.81422 -13.00003,-6.65846 -17.061194,-12.4465 l -0.22787,-0.32291 c -0.21862,-0.31005 -0.43438,-0.62167 -0.64843,-0.9349 l -0.19011,-0.27473 c -0.69485,-1.04707 -1.07374,-1.9878 -0.89192,-3.25127 0.23544,-0.95985 0.89091,-1.50944 1.64713,-2.0768 0.40433,-0.24217 0.85876,-0.37055 1.32161,-0.39583 z"
     style="fill:#ffffff;stroke-width:0.155886" /><path
     d="m 320.77305,119.84994 c -8.35484,17.55415 -30.70579,41.4278 -43.34516,54.1448 -1.35891,1.34035 -3.42548,1.34035 -4.78438,0 -12.71076,-12.717 -35.06172,-36.59065 -43.41656,-54.1448 -18.35206,-38.619093 27.92085,-64.365168 45.77304,-25.746053 17.85221,-38.619115 64.12511,-12.87304 45.77306,25.746053 z"
     id="path1-4"
     style="fill:#ffffff;fill-opacity:1;stroke-width:7.46404" /><circle
     style="fill:#ffffff;fill-opacity:1;stroke-width:0.810443"
     id="path11"
     cx="125"
     cy="125"
     r="12.5" /></svg>
